<svg width="671" height="258" viewBox="0 0 671 258" fill="none" xmlns="http://www.w3.org/2000/svg">
<path d="M10.6 9.38H3.9V13.36C4.18 12.9867 4.59333 12.6733 5.14 12.42C5.7 12.1667 6.29333 12.04 6.92 12.04C8.04 12.04 8.94667 12.28 9.64 12.76C10.3467 13.24 10.8467 13.8467 11.14 14.58C11.4467 15.3133 11.6 16.0867 11.6 16.9C11.6 17.8867 11.4067 18.7667 11.02 19.54C10.6467 20.3 10.08 20.9 9.32 21.34C8.57333 21.78 7.65333 22 6.56 22C5.10667 22 3.94 21.64 3.06 20.92C2.18 20.2 1.65333 19.2467 1.48 18.06H3.7C3.84667 18.6867 4.17333 19.1867 4.68 19.56C5.18667 19.92 5.82 20.1 6.58 20.1C7.52667 20.1 8.23333 19.8133 8.7 19.24C9.18 18.6667 9.42 17.9067 9.42 16.96C9.42 16 9.18 15.2667 8.7 14.76C8.22 14.24 7.51333 13.98 6.58 13.98C5.92667 13.98 5.37333 14.1467 4.92 14.48C4.48 14.8 4.16 15.24 3.96 15.8H1.8V7.38H10.6V9.38ZM29.2441 22.14C28.3107 22.14 27.4707 21.98 26.7241 21.66C25.9774 21.3267 25.3907 20.86 24.9641 20.26C24.5374 19.66 24.3241 18.96 24.3241 18.16H26.7641C26.8174 18.76 27.0507 19.2533 27.4641 19.64C27.8907 20.0267 28.4841 20.22 29.2441 20.22C30.0307 20.22 30.6441 20.0333 31.0841 19.66C31.5241 19.2733 31.7441 18.78 31.7441 18.18C31.7441 17.7133 31.6041 17.3333 31.3241 17.04C31.0574 16.7467 30.7174 16.52 30.3041 16.36C29.9041 16.2 29.3441 16.0267 28.6241 15.84C27.7174 15.6 26.9774 15.36 26.4041 15.12C25.8441 14.8667 25.3641 14.48 24.9641 13.96C24.5641 13.44 24.3641 12.7467 24.3641 11.88C24.3641 11.08 24.5641 10.38 24.9641 9.78C25.3641 9.18 25.9241 8.72 26.6441 8.4C27.3641 8.08 28.1974 7.92 29.1441 7.92C30.4907 7.92 31.5907 8.26 32.4441 8.94C33.3107 9.60667 33.7907 10.5267 33.8841 11.7H31.3641C31.3241 11.1933 31.0841 10.76 30.6441 10.4C30.2041 10.04 29.6241 9.86 28.9041 9.86C28.2507 9.86 27.7174 10.0267 27.3041 10.36C26.8907 10.6933 26.6841 11.1733 26.6841 11.8C26.6841 12.2267 26.8107 12.58 27.0641 12.86C27.3307 13.1267 27.6641 13.34 28.0641 13.5C28.4641 13.66 29.0107 13.8333 29.7041 14.02C30.6241 14.2733 31.3707 14.5267 31.9441 14.78C32.5307 15.0333 33.0241 15.4267 33.4241 15.96C33.8374 16.48 34.0441 17.18 34.0441 18.06C34.0441 18.7667 33.8507 19.4333 33.4641 20.06C33.0907 20.6867 32.5374 21.1933 31.8041 21.58C31.0841 21.9533 30.2307 22.14 29.2441 22.14ZM39.3944 12.84V18.94C39.3944 19.3533 39.4877 19.6533 39.6744 19.84C39.8744 20.0133 40.2077 20.1 40.6744 20.1H42.0744V22H40.2744C39.2477 22 38.461 21.76 37.9144 21.28C37.3677 20.8 37.0944 20.02 37.0944 18.94V12.84H35.7944V10.98H37.0944V8.24H39.3944V10.98H42.0744V12.84H39.3944ZM43.4158 16.44C43.4158 15.3333 43.6424 14.3533 44.0958 13.5C44.5624 12.6467 45.1891 11.9867 45.9758 11.52C46.7758 11.04 47.6558 10.8 48.6158 10.8C49.4824 10.8 50.2358 10.9733 50.8758 11.32C51.5291 11.6533 52.0491 12.0733 52.4358 12.58V10.98H54.7358V22H52.4358V20.36C52.0491 20.88 51.5224 21.3133 50.8558 21.66C50.1891 22.0067 49.4291 22.18 48.5758 22.18C47.6291 22.18 46.7624 21.94 45.9758 21.46C45.1891 20.9667 44.5624 20.2867 44.0958 19.42C43.6424 18.54 43.4158 17.5467 43.4158 16.44ZM52.4358 16.48C52.4358 15.72 52.2758 15.06 51.9558 14.5C51.6491 13.94 51.2424 13.5133 50.7358 13.22C50.2291 12.9267 49.6824 12.78 49.0958 12.78C48.5091 12.78 47.9624 12.9267 47.4558 13.22C46.9491 13.5 46.5358 13.92 46.2158 14.48C45.9091 15.0267 45.7558 15.68 45.7558 16.44C45.7558 17.2 45.9091 17.8667 46.2158 18.44C46.5358 19.0133 46.9491 19.4533 47.4558 19.76C47.9758 20.0533 48.5224 20.2 49.0958 20.2C49.6824 20.2 50.2291 20.0533 50.7358 19.76C51.2424 19.4667 51.6491 19.04 51.9558 18.48C52.2758 17.9067 52.4358 17.24 52.4358 16.48ZM60.0105 12.58C60.3438 12.02 60.7838 11.5867 61.3305 11.28C61.8905 10.96 62.5505 10.8 63.3105 10.8V13.16H62.7305C61.8371 13.16 61.1571 13.3867 60.6905 13.84C60.2371 14.2933 60.0105 15.08 60.0105 16.2V22H57.7305V10.98H60.0105V12.58Z" fill="#2D5016"/>
<path d="M0.92 75.96V74.24L7.64 64.6H10.4V73.98H12.26V75.96H10.4V79H8.16V75.96H0.92ZM8.26 66.92L3.54 73.98H8.26V66.92ZM29.4198 79.14C28.4865 79.14 27.6465 78.98 26.8998 78.66C26.1532 78.3267 25.5665 77.86 25.1398 77.26C24.7132 76.66 24.4998 75.96 24.4998 75.16H26.9398C26.9932 75.76 27.2265 76.2533 27.6398 76.64C28.0665 77.0267 28.6598 77.22 29.4198 77.22C30.2065 77.22 30.8198 77.0333 31.2598 76.66C31.6998 76.2733 31.9198 75.78 31.9198 75.18C31.9198 74.7133 31.7798 74.3333 31.4998 74.04C31.2332 73.7467 30.8932 73.52 30.4798 73.36C30.0798 73.2 29.5198 73.0267 28.7998 72.84C27.8932 72.6 27.1532 72.36 26.5798 72.12C26.0198 71.8667 25.5398 71.48 25.1398 70.96C24.7398 70.44 24.5398 69.7467 24.5398 68.88C24.5398 68.08 24.7398 67.38 25.1398 66.78C25.5398 66.18 26.0998 65.72 26.8198 65.4C27.5398 65.08 28.3732 64.92 29.3198 64.92C30.6665 64.92 31.7665 65.26 32.6198 65.94C33.4865 66.6067 33.9665 67.5267 34.0598 68.7H31.5398C31.4998 68.1933 31.2598 67.76 30.8198 67.4C30.3798 67.04 29.7998 66.86 29.0798 66.86C28.4265 66.86 27.8932 67.0267 27.4798 67.36C27.0665 67.6933 26.8598 68.1733 26.8598 68.8C26.8598 69.2267 26.9865 69.58 27.2398 69.86C27.5065 70.1267 27.8398 70.34 28.2398 70.5C28.6398 70.66 29.1865 70.8333 29.8798 71.02C30.7998 71.2733 31.5465 71.5267 32.1198 71.78C32.7065 72.0333 33.1998 72.4267 33.5998 72.96C34.0132 73.48 34.2198 74.18 34.2198 75.06C34.2198 75.7667 34.0265 76.4333 33.6398 77.06C33.2665 77.6867 32.7132 78.1933 31.9798 78.58C31.2598 78.9533 30.4065 79.14 29.4198 79.14ZM39.5702 69.84V75.94C39.5702 76.3533 39.6635 76.6533 39.8502 76.84C40.0502 77.0133 40.3835 77.1 40.8502 77.1H42.2502V79H40.4502C39.4235 79 38.6368 78.76 38.0902 78.28C37.5435 77.8 37.2702 77.02 37.2702 75.94V69.84H35.9702V67.98H37.2702V65.24H39.5702V67.98H42.2502V69.84H39.5702ZM43.5916 73.44C43.5916 72.3333 43.8182 71.3533 44.2716 70.5C44.7382 69.6467 45.3649 68.9867 46.1516 68.52C46.9516 68.04 47.8316 67.8 48.7916 67.8C49.6582 67.8 50.4116 67.9733 51.0516 68.32C51.7049 68.6533 52.2249 69.0733 52.6116 69.58V67.98H54.9116V79H52.6116V77.36C52.2249 77.88 51.6982 78.3133 51.0316 78.66C50.3649 79.0067 49.6049 79.18 48.7516 79.18C47.8049 79.18 46.9382 78.94 46.1516 78.46C45.3649 77.9667 44.7382 77.2867 44.2716 76.42C43.8182 75.54 43.5916 74.5467 43.5916 73.44ZM52.6116 73.48C52.6116 72.72 52.4516 72.06 52.1316 71.5C51.8249 70.94 51.4182 70.5133 50.9116 70.22C50.4049 69.9267 49.8582 69.78 49.2716 69.78C48.6849 69.78 48.1382 69.9267 47.6316 70.22C47.1249 70.5 46.7116 70.92 46.3916 71.48C46.0849 72.0267 45.9316 72.68 45.9316 73.44C45.9316 74.2 46.0849 74.8667 46.3916 75.44C46.7116 76.0133 47.1249 76.4533 47.6316 76.76C48.1516 77.0533 48.6982 77.2 49.2716 77.2C49.8582 77.2 50.4049 77.0533 50.9116 76.76C51.4182 76.4667 51.8249 76.04 52.1316 75.48C52.4516 74.9067 52.6116 74.24 52.6116 73.48ZM60.1863 69.58C60.5196 69.02 60.9596 68.5867 61.5063 68.28C62.0663 67.96 62.7263 67.8 63.4863 67.8V70.16H62.9063C62.0129 70.16 61.3329 70.3867 60.8663 70.84C60.4129 71.2933 60.1863 72.08 60.1863 73.2V79H57.9063V67.98H60.1863V69.58Z" fill="#2D5016"/>
<path d="M1.16 125.02C1.24 123.78 1.71333 122.813 2.58 122.12C3.46 121.427 4.58 121.08 5.94 121.08C6.87333 121.08 7.68 121.247 8.36 121.58C9.04 121.913 9.55333 122.367 9.9 122.94C10.2467 123.513 10.42 124.16 10.42 124.88C10.42 125.707 10.2 126.413 9.76 127C9.32 127.587 8.79333 127.98 8.18 128.18V128.26C8.96667 128.5 9.58 128.94 10.02 129.58C10.46 130.207 10.68 131.013 10.68 132C10.68 132.787 10.5 133.487 10.14 134.1C9.78 134.713 9.24667 135.2 8.54 135.56C7.83333 135.907 6.98667 136.08 6 136.08C4.56 136.08 3.37333 135.713 2.44 134.98C1.52 134.233 1.02667 133.167 0.96 131.78H3.16C3.21333 132.487 3.48667 133.067 3.98 133.52C4.47333 133.96 5.14 134.18 5.98 134.18C6.79333 134.18 7.42 133.96 7.86 133.52C8.3 133.067 8.52 132.487 8.52 131.78C8.52 130.847 8.22 130.187 7.62 129.8C7.03333 129.4 6.12667 129.2 4.9 129.2H4.38V127.32H4.92C6 127.307 6.82 127.127 7.38 126.78C7.95333 126.433 8.24 125.887 8.24 125.14C8.24 124.5 8.03333 123.993 7.62 123.62C7.20667 123.233 6.62 123.04 5.86 123.04C5.11333 123.04 4.53333 123.233 4.12 123.62C3.70667 123.993 3.46 124.46 3.38 125.02H1.16ZM28.3456 136.14C27.4123 136.14 26.5723 135.98 25.8256 135.66C25.079 135.327 24.4923 134.86 24.0656 134.26C23.639 133.66 23.4256 132.96 23.4256 132.16H25.8656C25.919 132.76 26.1523 133.253 26.5656 133.64C26.9923 134.027 27.5856 134.22 28.3456 134.22C29.1323 134.22 29.7456 134.033 30.1856 133.66C30.6256 133.273 30.8456 132.78 30.8456 132.18C30.8456 131.713 30.7056 131.333 30.4256 131.04C30.159 130.747 29.819 130.52 29.4056 130.36C29.0056 130.2 28.4456 130.027 27.7256 129.84C26.819 129.6 26.079 129.36 25.5056 129.12C24.9456 128.867 24.4656 128.48 24.0656 127.96C23.6656 127.44 23.4656 126.747 23.4656 125.88C23.4656 125.08 23.6656 124.38 24.0656 123.78C24.4656 123.18 25.0256 122.72 25.7456 122.4C26.4656 122.08 27.299 121.92 28.2456 121.92C29.5923 121.92 30.6923 122.26 31.5456 122.94C32.4123 123.607 32.8923 124.527 32.9856 125.7H30.4656C30.4256 125.193 30.1856 124.76 29.7456 124.4C29.3056 124.04 28.7256 123.86 28.0056 123.86C27.3523 123.86 26.819 124.027 26.4056 124.36C25.9923 124.693 25.7856 125.173 25.7856 125.8C25.7856 126.227 25.9123 126.58 26.1656 126.86C26.4323 127.127 26.7656 127.34 27.1656 127.5C27.5656 127.66 28.1123 127.833 28.8056 128.02C29.7256 128.273 30.4723 128.527 31.0456 128.78C31.6323 129.033 32.1256 129.427 32.5256 129.96C32.939 130.48 33.1456 131.18 33.1456 132.06C33.1456 132.767 32.9523 133.433 32.5656 134.06C32.1923 134.687 31.639 135.193 30.9056 135.58C30.1856 135.953 29.3323 136.14 28.3456 136.14ZM38.4959 126.84V132.94C38.4959 133.353 38.5893 133.653 38.7759 133.84C38.9759 134.013 39.3093 134.1 39.7759 134.1H41.1759V136H39.3759C38.3493 136 37.5626 135.76 37.0159 135.28C36.4693 134.8 36.1959 134.02 36.1959 132.94V126.84H34.8959V124.98H36.1959V122.24H38.4959V124.98H41.1759V126.84H38.4959ZM42.5173 130.44C42.5173 129.333 42.744 128.353 43.1973 127.5C43.664 126.647 44.2907 125.987 45.0773 125.52C45.8773 125.04 46.7573 124.8 47.7173 124.8C48.584 124.8 49.3373 124.973 49.9773 125.32C50.6307 125.653 51.1507 126.073 51.5373 126.58V124.98H53.8373V136H51.5373V134.36C51.1507 134.88 50.624 135.313 49.9573 135.66C49.2907 136.007 48.5307 136.18 47.6773 136.18C46.7307 136.18 45.864 135.94 45.0773 135.46C44.2907 134.967 43.664 134.287 43.1973 133.42C42.744 132.54 42.5173 131.547 42.5173 130.44ZM51.5373 130.48C51.5373 129.72 51.3773 129.06 51.0573 128.5C50.7507 127.94 50.344 127.513 49.8373 127.22C49.3307 126.927 48.784 126.78 48.1973 126.78C47.6107 126.78 47.064 126.927 46.5573 127.22C46.0507 127.5 45.6373 127.92 45.3173 128.48C45.0107 129.027 44.8573 129.68 44.8573 130.44C44.8573 131.2 45.0107 131.867 45.3173 132.44C45.6373 133.013 46.0507 133.453 46.5573 133.76C47.0773 134.053 47.624 134.2 48.1973 134.2C48.784 134.2 49.3307 134.053 49.8373 133.76C50.344 133.467 50.7507 133.04 51.0573 132.48C51.3773 131.907 51.5373 131.24 51.5373 130.48ZM59.112 126.58C59.4454 126.02 59.8854 125.587 60.432 125.28C60.992 124.96 61.652 124.8 62.412 124.8V127.16H61.832C60.9387 127.16 60.2587 127.387 59.792 127.84C59.3387 128.293 59.112 129.08 59.112 130.2V136H56.832V124.98H59.112V126.58Z" fill="#2D5016"/>
<path d="M2.46 189.9C3.74 188.793 4.74667 187.887 5.48 187.18C6.22667 186.46 6.84667 185.713 7.34 184.94C7.83333 184.167 8.08 183.393 8.08 182.62C8.08 181.82 7.88667 181.193 7.5 180.74C7.12667 180.287 6.53333 180.06 5.72 180.06C4.93333 180.06 4.32 180.313 3.88 180.82C3.45333 181.313 3.22667 181.98 3.2 182.82H1C1.04 181.3 1.49333 180.14 2.36 179.34C3.24 178.527 4.35333 178.12 5.7 178.12C7.15333 178.12 8.28667 178.52 9.1 179.32C9.92667 180.12 10.34 181.187 10.34 182.52C10.34 183.48 10.0933 184.407 9.6 185.3C9.12 186.18 8.54 186.973 7.86 187.68C7.19333 188.373 6.34 189.18 5.3 190.1L4.4 190.9H10.74V192.8H1.02V191.14L2.46 189.9ZM28.0136 193.14C27.0803 193.14 26.2403 192.98 25.4936 192.66C24.7469 192.327 24.1603 191.86 23.7336 191.26C23.3069 190.66 23.0936 189.96 23.0936 189.16H25.5336C25.5869 189.76 25.8203 190.253 26.2336 190.64C26.6603 191.027 27.2536 191.22 28.0136 191.22C28.8003 191.22 29.4136 191.033 29.8536 190.66C30.2936 190.273 30.5136 189.78 30.5136 189.18C30.5136 188.713 30.3736 188.333 30.0936 188.04C29.8269 187.747 29.4869 187.52 29.0736 187.36C28.6736 187.2 28.1136 187.027 27.3936 186.84C26.4869 186.6 25.7469 186.36 25.1736 186.12C24.6136 185.867 24.1336 185.48 23.7336 184.96C23.3336 184.44 23.1336 183.747 23.1336 182.88C23.1336 182.08 23.3336 181.38 23.7336 180.78C24.1336 180.18 24.6936 179.72 25.4136 179.4C26.1336 179.08 26.9669 178.92 27.9136 178.92C29.2603 178.92 30.3603 179.26 31.2136 179.94C32.0803 180.607 32.5603 181.527 32.6536 182.7H30.1336C30.0936 182.193 29.8536 181.76 29.4136 181.4C28.9736 181.04 28.3936 180.86 27.6736 180.86C27.0203 180.86 26.4869 181.027 26.0736 181.36C25.6603 181.693 25.4536 182.173 25.4536 182.8C25.4536 183.227 25.5803 183.58 25.8336 183.86C26.1003 184.127 26.4336 184.34 26.8336 184.5C27.2336 184.66 27.7803 184.833 28.4736 185.02C29.3936 185.273 30.1403 185.527 30.7136 185.78C31.3003 186.033 31.7936 186.427 32.1936 186.96C32.6069 187.48 32.8136 188.18 32.8136 189.06C32.8136 189.767 32.6203 190.433 32.2336 191.06C31.8603 191.687 31.3069 192.193 30.5736 192.58C29.8536 192.953 29.0003 193.14 28.0136 193.14ZM38.1639 183.84V189.94C38.1639 190.353 38.2572 190.653 38.4439 190.84C38.6439 191.013 38.9772 191.1 39.4439 191.1H40.8439V193H39.0439C38.0172 193 37.2306 192.76 36.6839 192.28C36.1372 191.8 35.8639 191.02 35.8639 189.94V183.84H34.5639V181.98H35.8639V179.24H38.1639V181.98H40.8439V183.84H38.1639ZM42.1853 187.44C42.1853 186.333 42.412 185.353 42.8653 184.5C43.332 183.647 43.9586 182.987 44.7453 182.52C45.5453 182.04 46.4253 181.8 47.3853 181.8C48.252 181.8 49.0053 181.973 49.6453 182.32C50.2986 182.653 50.8186 183.073 51.2053 183.58V181.98H53.5053V193H51.2053V191.36C50.8186 191.88 50.292 192.313 49.6253 192.66C48.9586 193.007 48.1986 193.18 47.3453 193.18C46.3986 193.18 45.532 192.94 44.7453 192.46C43.9586 191.967 43.332 191.287 42.8653 190.42C42.412 189.54 42.1853 188.547 42.1853 187.44ZM51.2053 187.48C51.2053 186.72 51.0453 186.06 50.7253 185.5C50.4186 184.94 50.012 184.513 49.5053 184.22C48.9986 183.927 48.452 183.78 47.8653 183.78C47.2786 183.78 46.732 183.927 46.2253 184.22C45.7186 184.5 45.3053 184.92 44.9853 185.48C44.6786 186.027 44.5253 186.68 44.5253 187.44C44.5253 188.2 44.6786 188.867 44.9853 189.44C45.3053 190.013 45.7186 190.453 46.2253 190.76C46.7453 191.053 47.292 191.2 47.8653 191.2C48.452 191.2 48.9986 191.053 49.5053 190.76C50.012 190.467 50.4186 190.04 50.7253 189.48C51.0453 188.907 51.2053 188.24 51.2053 187.48ZM58.78 183.58C59.1133 183.02 59.5533 182.587 60.1 182.28C60.66 181.96 61.32 181.8 62.08 181.8V184.16H61.5C60.6067 184.16 59.9267 184.387 59.46 184.84C59.0067 185.293 58.78 186.08 58.78 187.2V193H56.5V181.98H58.78V183.58Z" fill="#2D5016"/>
<path d="M0.9 237.5V235.42H5.06V250H2.76V237.5H0.9ZM23.4628 250.14C22.5295 250.14 21.6895 249.98 20.9428 249.66C20.1961 249.327 19.6095 248.86 19.1828 248.26C18.7561 247.66 18.5428 246.96 18.5428 246.16H20.9828C21.0361 246.76 21.2695 247.253 21.6828 247.64C22.1095 248.027 22.7028 248.22 23.4628 248.22C24.2495 248.22 24.8628 248.033 25.3028 247.66C25.7428 247.273 25.9628 246.78 25.9628 246.18C25.9628 245.713 25.8228 245.333 25.5428 245.04C25.2761 244.747 24.9361 244.52 24.5228 244.36C24.1228 244.2 23.5628 244.027 22.8428 243.84C21.9361 243.6 21.1961 243.36 20.6228 243.12C20.0628 242.867 19.5828 242.48 19.1828 241.96C18.7828 241.44 18.5828 240.747 18.5828 239.88C18.5828 239.08 18.7828 238.38 19.1828 237.78C19.5828 237.18 20.1428 236.72 20.8628 236.4C21.5828 236.08 22.4161 235.92 23.3628 235.92C24.7095 235.92 25.8095 236.26 26.6628 236.94C27.5295 237.607 28.0095 238.527 28.1028 239.7H25.5828C25.5428 239.193 25.3028 238.76 24.8628 238.4C24.4228 238.04 23.8428 237.86 23.1228 237.86C22.4695 237.86 21.9361 238.027 21.5228 238.36C21.1095 238.693 20.9028 239.173 20.9028 239.8C20.9028 240.227 21.0295 240.58 21.2828 240.86C21.5495 241.127 21.8828 241.34 22.2828 241.5C22.6828 241.66 23.2295 241.833 23.9228 242.02C24.8428 242.273 25.5895 242.527 26.1628 242.78C26.7495 243.033 27.2428 243.427 27.6428 243.96C28.0561 244.48 28.2628 245.18 28.2628 246.06C28.2628 246.767 28.0695 247.433 27.6828 248.06C27.3095 248.687 26.7561 249.193 26.0228 249.58C25.3028 249.953 24.4495 250.14 23.4628 250.14ZM33.6131 240.84V246.94C33.6131 247.353 33.7065 247.653 33.8931 247.84C34.0931 248.013 34.4265 248.1 34.8931 248.1H36.2931V250H34.4931C33.4665 250 32.6798 249.76 32.1331 249.28C31.5865 248.8 31.3131 248.02 31.3131 246.94V240.84H30.0131V238.98H31.3131V236.24H33.6131V238.98H36.2931V240.84H33.6131ZM37.6345 244.44C37.6345 243.333 37.8612 242.353 38.3145 241.5C38.7812 240.647 39.4079 239.987 40.1945 239.52C40.9945 239.04 41.8745 238.8 42.8345 238.8C43.7012 238.8 44.4545 238.973 45.0945 239.32C45.7479 239.653 46.2679 240.073 46.6545 240.58V238.98H48.9545V250H46.6545V248.36C46.2679 248.88 45.7412 249.313 45.0745 249.66C44.4079 250.007 43.6479 250.18 42.7945 250.18C41.8479 250.18 40.9812 249.94 40.1945 249.46C39.4079 248.967 38.7812 248.287 38.3145 247.42C37.8612 246.54 37.6345 245.547 37.6345 244.44ZM46.6545 244.48C46.6545 243.72 46.4945 243.06 46.1745 242.5C45.8679 241.94 45.4612 241.513 44.9545 241.22C44.4479 240.927 43.9012 240.78 43.3145 240.78C42.7279 240.78 42.1812 240.927 41.6745 241.22C41.1679 241.5 40.7545 241.92 40.4345 242.48C40.1279 243.027 39.9745 243.68 39.9745 244.44C39.9745 245.2 40.1279 245.867 40.4345 246.44C40.7545 247.013 41.1679 247.453 41.6745 247.76C42.1945 248.053 42.7412 248.2 43.3145 248.2C43.9012 248.2 44.4479 248.053 44.9545 247.76C45.4612 247.467 45.8679 247.04 46.1745 246.48C46.4945 245.907 46.6545 245.24 46.6545 244.48ZM54.2292 240.58C54.5626 240.02 55.0026 239.587 55.5492 239.28C56.1092 238.96 56.7692 238.8 57.5292 238.8V241.16H56.9492C56.0559 241.16 55.3759 241.387 54.9092 241.84C54.4559 242.293 54.2292 243.08 54.2292 244.2V250H51.9492V238.98H54.2292V240.58Z" fill="#2D5016"/>
<path d="M634.66 15.38C633.273 14.6867 632.58 13.5933 632.58 12.1C632.58 11.38 632.76 10.72 633.12 10.12C633.48 9.52 634.02 9.04667 634.74 8.7C635.46 8.34 636.34 8.16 637.38 8.16C638.407 8.16 639.28 8.34 640 8.7C640.733 9.04667 641.28 9.52 641.64 10.12C642 10.72 642.18 11.38 642.18 12.1C642.18 12.8467 641.987 13.5067 641.6 14.08C641.227 14.64 640.727 15.0733 640.1 15.38C640.86 15.66 641.46 16.12 641.9 16.76C642.34 17.3867 642.56 18.1267 642.56 18.98C642.56 19.8467 642.34 20.6133 641.9 21.28C641.46 21.9467 640.847 22.46 640.06 22.82C639.273 23.18 638.38 23.36 637.38 23.36C636.38 23.36 635.487 23.18 634.7 22.82C633.927 22.46 633.32 21.9467 632.88 21.28C632.44 20.6133 632.22 19.8467 632.22 18.98C632.22 18.1133 632.44 17.3667 632.88 16.74C633.32 16.1133 633.913 15.66 634.66 15.38ZM640 12.38C640 11.6333 639.767 11.06 639.3 10.66C638.833 10.26 638.193 10.06 637.38 10.06C636.58 10.06 635.947 10.26 635.48 10.66C635.013 11.06 634.78 11.64 634.78 12.4C634.78 13.0667 635.02 13.6133 635.5 14.04C635.993 14.4533 636.62 14.66 637.38 14.66C638.14 14.66 638.767 14.4467 639.26 14.02C639.753 13.5933 640 13.0467 640 12.38ZM637.38 16.38C636.5 16.38 635.78 16.6 635.22 17.04C634.673 17.4667 634.4 18.0867 634.4 18.9C634.4 19.66 634.667 20.28 635.2 20.76C635.733 21.2267 636.46 21.46 637.38 21.46C638.287 21.46 639 21.22 639.52 20.74C640.053 20.26 640.32 19.6467 640.32 18.9C640.32 18.1 640.047 17.48 639.5 17.04C638.967 16.6 638.26 16.38 637.38 16.38ZM644.674 19.96V18.24L651.394 8.6H654.154V17.98H656.014V19.96H654.154V23H651.914V19.96H644.674ZM652.014 10.92L647.294 17.98H652.014V10.92ZM667.143 10.18L661.583 23H659.283L664.903 10.42H657.503V8.48H667.143V10.18Z" fill="#2D5016"/>
<path d="M633.46 75.9C634.74 74.7933 635.747 73.8867 636.48 73.18C637.227 72.46 637.847 71.7133 638.34 70.94C638.833 70.1667 639.08 69.3933 639.08 68.62C639.08 67.82 638.887 67.1933 638.5 66.74C638.127 66.2867 637.533 66.06 636.72 66.06C635.933 66.06 635.32 66.3133 634.88 66.82C634.453 67.3133 634.227 67.98 634.2 68.82H632C632.04 67.3 632.493 66.14 633.36 65.34C634.24 64.5267 635.353 64.12 636.7 64.12C638.153 64.12 639.287 64.52 640.1 65.32C640.927 66.12 641.34 67.1867 641.34 68.52C641.34 69.48 641.093 70.4067 640.6 71.3C640.12 72.18 639.54 72.9733 638.86 73.68C638.193 74.3733 637.34 75.18 636.3 76.1L635.4 76.9H641.74V78.8H632.02V77.14L633.46 75.9ZM652.983 66.18L647.423 79H645.123L650.743 66.42H643.343V64.48H652.983V66.18ZM654.654 75.96V74.24L661.374 64.6H664.134V73.98H665.994V75.96H664.134V79H661.894V75.96H654.654ZM661.994 66.92L657.274 73.98H661.994V66.92Z" fill="#2D5016"/>
<path d="M641.44 123.18L635.88 136H633.58L639.2 123.42H631.8V121.48H641.44V123.18ZM652.791 123.38H646.091V127.36C646.371 126.987 646.785 126.673 647.331 126.42C647.891 126.167 648.485 126.04 649.111 126.04C650.231 126.04 651.138 126.28 651.831 126.76C652.538 127.24 653.038 127.847 653.331 128.58C653.638 129.313 653.791 130.087 653.791 130.9C653.791 131.887 653.598 132.767 653.211 133.54C652.838 134.3 652.271 134.9 651.511 135.34C650.765 135.78 649.845 136 648.751 136C647.298 136 646.131 135.64 645.251 134.92C644.371 134.2 643.845 133.247 643.671 132.06H645.891C646.038 132.687 646.365 133.187 646.871 133.56C647.378 133.92 648.011 134.1 648.771 134.1C649.718 134.1 650.425 133.813 650.891 133.24C651.371 132.667 651.611 131.907 651.611 130.96C651.611 130 651.371 129.267 650.891 128.76C650.411 128.24 649.705 127.98 648.771 127.98C648.118 127.98 647.565 128.147 647.111 128.48C646.671 128.8 646.351 129.24 646.151 129.8H643.991V121.38H652.791V123.38Z" fill="#2D5016"/>
<path d="M632.16 183.02C632.24 181.78 632.713 180.813 633.58 180.12C634.46 179.427 635.58 179.08 636.94 179.08C637.873 179.08 638.68 179.247 639.36 179.58C640.04 179.913 640.553 180.367 640.9 180.94C641.247 181.513 641.42 182.16 641.42 182.88C641.42 183.707 641.2 184.413 640.76 185C640.32 185.587 639.793 185.98 639.18 186.18V186.26C639.967 186.5 640.58 186.94 641.02 187.58C641.46 188.207 641.68 189.013 641.68 190C641.68 190.787 641.5 191.487 641.14 192.1C640.78 192.713 640.247 193.2 639.54 193.56C638.833 193.907 637.987 194.08 637 194.08C635.56 194.08 634.373 193.713 633.44 192.98C632.52 192.233 632.027 191.167 631.96 189.78H634.16C634.213 190.487 634.487 191.067 634.98 191.52C635.473 191.96 636.14 192.18 636.98 192.18C637.793 192.18 638.42 191.96 638.86 191.52C639.3 191.067 639.52 190.487 639.52 189.78C639.52 188.847 639.22 188.187 638.62 187.8C638.033 187.4 637.127 187.2 635.9 187.2H635.38V185.32H635.92C637 185.307 637.82 185.127 638.38 184.78C638.953 184.433 639.24 183.887 639.24 183.14C639.24 182.5 639.033 181.993 638.62 181.62C638.207 181.233 637.62 181.04 636.86 181.04C636.113 181.04 635.533 181.233 635.12 181.62C634.707 181.993 634.46 182.46 634.38 183.02H632.16ZM653.315 181.18L647.755 194H645.455L651.075 181.42H643.675V179.48H653.315V181.18Z" fill="#2D5016"/>
<path d="M631.9 237.5V235.42H636.06V250H633.76V237.5H631.9ZM638.912 246.96V245.24L645.632 235.6H648.392V244.98H650.252V246.96H648.392V250H646.152V246.96H638.912ZM646.252 237.92L641.532 244.98H646.252V237.92Z" fill="#2D5016"/>
<line x1="99.5" y1="12.5" x2="589.5" y2="12.5" stroke="#D9D9D9" stroke-width="19" stroke-linecap="round"/>
<line x1="99.5" y1="12.5" x2="468.5" y2="12.5" stroke="#7A9B57" stroke-width="19" stroke-linecap="round"/>
<line x1="99.5" y1="69.5" x2="589.5" y2="69.5" stroke="#D9D9D9" stroke-width="19" stroke-linecap="round"/>
<line x1="99.5" y1="69.5" x2="189.5" y2="69.5" stroke="#97DE4C" stroke-width="19" stroke-linecap="round"/>
<line x1="99.5" y1="126.5" x2="589.5" y2="126.5" stroke="#D9D9D9" stroke-width="19" stroke-linecap="round"/>
<line x1="99.5" y1="126.5" x2="132.5" y2="126.5" stroke="#F29D38" stroke-width="19" stroke-linecap="round"/>
<line x1="99.5" y1="183.5" x2="589.5" y2="183.5" stroke="#D9D9D9" stroke-width="19" stroke-linecap="round"/>
<line x1="99.5" y1="183.5" x2="112.5" y2="183.5" stroke="#FF6600" stroke-width="19" stroke-linecap="round"/>
<line x1="99.5" y1="240.5" x2="589.5" y2="240.5" stroke="#D9D9D9" stroke-width="19" stroke-linecap="round"/>
<line x1="99.5" y1="240.5" x2="100.5" y2="240.5" stroke="#C62828" stroke-width="19" stroke-linecap="round"/>
</svg>
